<?xml version="1.0" encoding="UTF-8" standalone="no"?>
<!DOCTYPE svg PUBLIC "-//W3C//DTD SVG 1.1//EN"
 "http://www.w3.org/Graphics/SVG/1.1/DTD/svg11.dtd">
<!-- Generated by graphviz version 2.28.0 (20111211.2114)
 -->
<!-- Title: G Pages: 1 -->
<svg width="348pt" height="490pt"
 viewBox="0.00 0.00 348.00 490.00" xmlns="http://www.w3.org/2000/svg" xmlns:xlink="http://www.w3.org/1999/xlink">
<g id="graph1" class="graph" transform="scale(1 1) rotate(0) translate(4 486)">
<title>G</title>
<polygon fill="white" stroke="white" points="-4,5 -4,-486 345,-486 345,5 -4,5"/>
<g id="graph2" class="cluster"><title>cluster_Global</title>
<polyline fill="none" stroke="gray" points="20,-8 320,-8 "/>
<path fill="none" stroke="gray" d="M320,-8C326,-8 332,-14 332,-20"/>
<polyline fill="none" stroke="gray" points="332,-20 332,-462 "/>
<path fill="none" stroke="gray" d="M332,-462C332,-468 326,-474 320,-474"/>
<polyline fill="none" stroke="gray" points="320,-474 20,-474 "/>
<path fill="none" stroke="gray" d="M20,-474C14,-474 8,-468 8,-462"/>
<polyline fill="none" stroke="gray" points="8,-462 8,-20 "/>
<path fill="none" stroke="gray" d="M8,-20C8,-14 14,-8 20,-8"/>
<text text-anchor="middle" x="170" y="-461.2" font-family="Times,serif" font-size="11.00" fill="gray">\</text>
</g>
<g id="graph3" class="cluster"><title>cluster_\megaquiz</title>
<polyline fill="none" stroke="gray" points="28,-16 312,-16 "/>
<path fill="none" stroke="gray" d="M312,-16C318,-16 324,-22 324,-28"/>
<polyline fill="none" stroke="gray" points="324,-28 324,-434 "/>
<path fill="none" stroke="gray" d="M324,-434C324,-440 318,-446 312,-446"/>
<polyline fill="none" stroke="gray" points="312,-446 28,-446 "/>
<path fill="none" stroke="gray" d="M28,-446C22,-446 16,-440 16,-434"/>
<polyline fill="none" stroke="gray" points="16,-434 16,-28 "/>
<path fill="none" stroke="gray" d="M16,-28C16,-22 22,-16 28,-16"/>
<text text-anchor="middle" x="170" y="-433.2" font-family="Times,serif" font-size="11.00" fill="gray">megaquiz</text>
</g>
<g id="graph4" class="cluster"><title>cluster_\megaquiz\command</title>
<polyline fill="none" stroke="gray" points="36,-238 304,-238 "/>
<path fill="none" stroke="gray" d="M304,-238C310,-238 316,-244 316,-250"/>
<polyline fill="none" stroke="gray" points="316,-250 316,-406 "/>
<path fill="none" stroke="gray" d="M316,-406C316,-412 310,-418 304,-418"/>
<polyline fill="none" stroke="gray" points="304,-418 36,-418 "/>
<path fill="none" stroke="gray" d="M36,-418C30,-418 24,-412 24,-406"/>
<polyline fill="none" stroke="gray" points="24,-406 24,-250 "/>
<path fill="none" stroke="gray" d="M24,-250C24,-244 30,-238 36,-238"/>
<text text-anchor="middle" x="170" y="-405.2" font-family="Times,serif" font-size="11.00" fill="gray">command</text>
</g>
<g id="graph5" class="cluster"><title>cluster_\megaquiz\quiztools</title>
<polyline fill="none" stroke="gray" points="194,-104 304,-104 "/>
<path fill="none" stroke="gray" d="M304,-104C310,-104 316,-110 316,-116"/>
<polyline fill="none" stroke="gray" points="316,-116 316,-218 "/>
<path fill="none" stroke="gray" d="M316,-218C316,-224 310,-230 304,-230"/>
<polyline fill="none" stroke="gray" points="304,-230 194,-230 "/>
<path fill="none" stroke="gray" d="M194,-230C188,-230 182,-224 182,-218"/>
<polyline fill="none" stroke="gray" points="182,-218 182,-116 "/>
<path fill="none" stroke="gray" d="M182,-116C182,-110 188,-104 194,-104"/>
<text text-anchor="middle" x="249" y="-217.2" font-family="Times,serif" font-size="11.00" fill="gray">quiztools</text>
</g>
<g id="graph6" class="cluster"><title>cluster_\megaquiz\quizobjects</title>
<polyline fill="none" stroke="gray" points="226,-24 272,-24 "/>
<path fill="none" stroke="gray" d="M272,-24C278,-24 284,-30 284,-36"/>
<polyline fill="none" stroke="gray" points="284,-36 284,-84 "/>
<path fill="none" stroke="gray" d="M284,-84C284,-90 278,-96 272,-96"/>
<polyline fill="none" stroke="gray" points="272,-96 226,-96 "/>
<path fill="none" stroke="gray" d="M226,-96C220,-96 214,-90 214,-84"/>
<polyline fill="none" stroke="gray" points="214,-84 214,-36 "/>
<path fill="none" stroke="gray" d="M214,-36C214,-30 220,-24 226,-24"/>
<text text-anchor="middle" x="249" y="-83.2" font-family="Times,serif" font-size="11.00" fill="gray">quizobjects</text>
</g>
<!-- \\megaquiz\\command\\CommandContext -->
<g id="node4" class="node"><title>\\megaquiz\\command\\CommandContext</title>
<polygon fill="none" stroke="black" points="304.5,-390 193.5,-390 193.5,-354 304.5,-354 304.5,-390"/>
<text text-anchor="middle" x="249" y="-369.2" font-family="Courier,monospace" font-size="11.00">CommandContext</text>
</g>
<!-- \\megaquiz\\command\\FeedbackCommand -->
<g id="node5" class="node"><title>\\megaquiz\\command\\FeedbackCommand</title>
<polygon fill="none" stroke="black" points="308,-336 190,-336 190,-300 308,-300 308,-336"/>
<text text-anchor="middle" x="249" y="-315.2" font-family="Courier,monospace" font-size="11.00">FeedbackCommand</text>
</g>
<!-- \\megaquiz\\command\\Command -->
<g id="node7" class="node"><title>\\megaquiz\\command\\Command</title>
<polygon fill="none" stroke="black" points="117.5,-309 32.5,-309 32.5,-273 117.5,-273 117.5,-309"/>
<text text-anchor="start" x="41" y="-294.7" font-family="Courier,monospace" font-size="11.00">«abstract»</text>
<text text-anchor="start" x="51" y="-283.7" font-family="Courier,monospace" font-size="11.00">Command</text>
</g>
<!-- \\megaquiz\\command\\FeedbackCommand&#45;&gt;\\megaquiz\\command\\Command -->
<g id="edge7" class="edge"><title>\\megaquiz\\command\\FeedbackCommand&#45;&gt;\\megaquiz\\command\\Command</title>
<path fill="none" stroke="black" d="M189.769,-308.859C169.602,-305.693 147.153,-302.169 127.56,-299.094"/>
<polygon fill="none" stroke="black" points="128.024,-295.624 117.602,-297.531 126.938,-302.539 128.024,-295.624"/>
</g>
<!-- \\megaquiz\\command\\LoginCommand -->
<g id="node6" class="node"><title>\\megaquiz\\command\\LoginCommand</title>
<polygon fill="none" stroke="black" points="298,-282 200,-282 200,-246 298,-246 298,-282"/>
<text text-anchor="middle" x="249" y="-261.2" font-family="Courier,monospace" font-size="11.00">LoginCommand</text>
</g>
<!-- \\megaquiz\\command\\LoginCommand&#45;&gt;\\megaquiz\\command\\Command -->
<g id="edge9" class="edge"><title>\\megaquiz\\command\\LoginCommand&#45;&gt;\\megaquiz\\command\\Command</title>
<path fill="none" stroke="black" d="M199.631,-271.593C177.228,-275.11 150.581,-279.293 127.772,-282.873"/>
<polygon fill="none" stroke="black" points="126.928,-279.463 117.592,-284.471 128.014,-286.378 126.928,-279.463"/>
</g>
<!-- \\megaquiz\\quiztools\\AccessManager -->
<g id="node9" class="node"><title>\\megaquiz\\quiztools\\AccessManager</title>
<polygon fill="none" stroke="black" points="301,-202 197,-202 197,-166 301,-166 301,-202"/>
<text text-anchor="middle" x="249" y="-181.2" font-family="Courier,monospace" font-size="11.00">AccessManager</text>
</g>
<!-- \\megaquiz\\quiztools\\ReceiverFactory -->
<g id="node10" class="node"><title>\\megaquiz\\quiztools\\ReceiverFactory</title>
<polygon fill="none" stroke="black" points="308,-148 190,-148 190,-112 308,-112 308,-148"/>
<text text-anchor="middle" x="249" y="-127.2" font-family="Courier,monospace" font-size="11.00">ReceiverFactory</text>
</g>
<!-- \\megaquiz\\quizobjects\\User -->
<g id="node12" class="node"><title>\\megaquiz\\quizobjects\\User</title>
<polygon fill="none" stroke="black" points="276,-68 222,-68 222,-32 276,-32 276,-68"/>
<text text-anchor="middle" x="249" y="-47.2" font-family="Courier,monospace" font-size="11.00">User</text>
</g>
</g>
</svg>
